<?xml version="1.0" encoding="UTF-8" standalone="no"?>
<svg
   xmlns:dc="http://purl.org/dc/elements/1.1/"
   xmlns:cc="http://creativecommons.org/ns#"
   xmlns:rdf="http://www.w3.org/1999/02/22-rdf-syntax-ns#"
   xmlns:svg="http://www.w3.org/2000/svg"
   xmlns="http://www.w3.org/2000/svg"
   xmlns:sodipodi="http://sodipodi.sourceforge.net/DTD/sodipodi-0.dtd"
   xmlns:inkscape="http://www.inkscape.org/namespaces/inkscape"
   height="113.50361"
   width="171.95662"
   inkscape:version="1.0 (4035a4fb49, 2020-05-01)"
   sodipodi:docname="mail.svg"
   xml:space="preserve"
   viewBox="0 0 171.95662 113.50361"
   y="0px"
   x="0px"
   id="Layer_1"
   version="1.1"><metadata
   id="metadata55"><rdf:RDF><cc:Work
       rdf:about=""><dc:format>image/svg+xml</dc:format><dc:type
         rdf:resource="http://purl.org/dc/dcmitype/StillImage" /><dc:title></dc:title></cc:Work></rdf:RDF></metadata><defs
   id="defs53" /><sodipodi:namedview
   fit-margin-bottom="0"
   fit-margin-right="0"
   fit-margin-left="0"
   fit-margin-top="0"
   inkscape:current-layer="Layer_1"
   inkscape:window-maximized="1"
   inkscape:window-y="-9"
   inkscape:window-x="-9"
   inkscape:cy="-125.19553"
   inkscape:cx="-112.70111"
   inkscape:zoom="1.1462864"
   showgrid="false"
   id="namedview51"
   inkscape:window-height="1001"
   inkscape:window-width="1920"
   inkscape:pageshadow="2"
   inkscape:pageopacity="0"
   guidetolerance="10"
   gridtolerance="10"
   objecttolerance="10"
   borderopacity="1"
   bordercolor="#666666"
   pagecolor="#ffffff" />





<g
   transform="translate(-169.47952,-313.6024)"
   id="g16">
	
	
</g>

<g
   transform="translate(-169.47952,-313.6024)"
   id="g20">
</g>
<g
   transform="translate(-169.47952,-313.6024)"
   id="g22">
</g>
<g
   transform="translate(-169.47952,-313.6024)"
   id="g24">
</g>
<g
   transform="translate(-169.47952,-313.6024)"
   id="g26">
</g>
<g
   transform="translate(-169.47952,-313.6024)"
   id="g28">
</g>
<g
   transform="translate(-169.47952,-313.6024)"
   id="g30">
</g>
<g
   transform="translate(-169.47952,-313.6024)"
   id="g32">
</g>
<g
   transform="translate(-169.47952,-313.6024)"
   id="g34">
</g>
<g
   transform="translate(-169.47952,-313.6024)"
   id="g36">
</g>
<g
   transform="translate(-169.47952,-313.6024)"
   id="g38">
</g>
<g
   transform="translate(-169.47952,-313.6024)"
   id="g40">
</g>
<g
   transform="translate(-169.47952,-313.6024)"
   id="g42">
</g>
<g
   transform="translate(-169.47952,-313.6024)"
   id="g44">
</g>
<g
   transform="translate(-169.47952,-313.6024)"
   id="g46">
</g>
<g
   transform="translate(-169.47952,-313.6024)"
   id="g48">
</g>
<g
   id="g914"><path
     style="font-variation-settings:'wdth' 100, 'wght' 400;fill:#323232;fill-opacity:1;stroke-width:1.08094;paint-order:markers stroke fill"
     d="M 86.10381,52.16103 C 85.5025,51.96738 84.97831,42.87397 84.97831,24.0889 V 0 h 43.3342 43.33421 L 130.62577,23.50952 C 82.811,50.91265 87.07841,52.47493 86.10381,52.16103 Z"
     id="path884"
     sodipodi:nodetypes="sscccss" /><path
     style="font-variation-settings:'wdth' 100, 'wght' 400;fill:#323232;fill-opacity:1;stroke-width:1.16573;paint-order:markers stroke fill"
     d="M 84.97831,84.9735 V 56.44338 l 1.38795,-0.0201 c 0.77925,-0.0113 19.71524,-12.25301 43.17729,-27.91325 22.98414,-15.34124 41.92968,-27.89317 42.1012,-27.89317 0.17154,0 0.31187,25.39952 0.31187,56.44337 v 56.44338 H 128.46747 84.97831 Z"
     id="path890" /><path
     id="path884-1"
     d="m 86.17996,52.16103 c 0.60131,-0.19365 0.79835,-9.28706 0.79835,-28.07213 V 0 H 43.64411 0.3099 l 41.02095,23.50952 c 47.81477,27.40313 43.87451,28.96541 44.84911,28.65151 z"
     style="font-variation-settings:'wdth' 100, 'wght' 400;fill:#323232;fill-opacity:1;stroke-width:1.08094;paint-order:markers stroke fill"
     sodipodi:nodetypes="sscccss" /><path
     id="path890-1"
     d="M 86.97831,84.9735 V 56.44338 l -1.38795,-0.0201 C 84.81111,56.41198 65.87512,44.17027 42.41307,28.51003 19.42893,13.16879 0.48339,0.61686 0.31187,0.61686 0.14033,0.61686 0,26.01638 0,57.06023 v 56.44338 h 43.48915 43.48916 z"
     style="font-variation-settings:'wdth' 100, 'wght' 400;fill:#323232;fill-opacity:1;stroke-width:1.16573;paint-order:markers stroke fill" /></g></svg>
